<svg width="24" height="24" viewBox="0 0 24 24" fill="none" xmlns="http://www.w3.org/2000/svg">
<path d="M6 3H5C4.46957 3 3.96086 3.21071 3.58579 3.58579C3.21071 3.96086 3 4.46957 3 5V10C3 10.5304 2.78929 11.0391 2.41421 11.4142C2.03914 11.7893 1.53043 12 1 12C1.53043 12 2.03914 12.2107 2.41421 12.5858C2.78929 12.9609 3 13.4696 3 14V19C3 20.1 3.9 21 5 21H6" stroke="black" stroke-width="2" stroke-linecap="round" stroke-linejoin="round"/>
<path d="M18 21H19C19.5304 21 20.0391 20.7893 20.4142 20.4142C20.7893 20.0391 21 19.5304 21 19V14C21 12.9 21.9 12 23 12C22.4696 12 21.9609 11.7893 21.5858 11.4142C21.2107 11.0391 21 10.5304 21 10V5C21 4.46957 20.7893 3.96086 20.4142 3.58579C20.0391 3.21071 19.5304 3 19 3H18" stroke="black" stroke-width="2" stroke-linecap="round" stroke-linejoin="round"/>
<path d="M9.39007 13.3996C9.3165 13.4001 9.24438 13.363 9.18207 13.2925C9.11977 13.2221 9.06984 13.1214 9.03808 13.0019C9.00633 12.8824 8.99405 12.7492 9.00269 12.6177C9.01132 12.4862 9.0405 12.3618 9.08685 12.2589L12.9354 5.12079C12.9643 5.0608 13.0036 5.02027 13.047 5.00583C13.0903 4.9914 13.1351 5.00393 13.174 5.04137C13.2128 5.0788 13.2435 5.13891 13.2609 5.21184C13.2783 5.28477 13.2814 5.36618 13.2697 5.44271L12.5233 9.65561C12.5013 9.76165 12.4939 9.87572 12.5018 9.98803C12.5096 10.1003 12.5325 10.2075 12.5685 10.3004C12.6044 10.3933 12.6523 10.4692 12.7081 10.5214C12.7639 10.5736 12.8259 10.6007 12.8887 10.6004H15.6099C15.6835 10.5999 15.7556 10.637 15.8179 10.7075C15.8802 10.7779 15.9302 10.8786 15.9619 10.9981C15.9937 11.1176 16.0059 11.2508 15.9973 11.3823C15.9887 11.5138 15.9595 11.6382 15.9132 11.7411L12.0646 18.8792C12.0357 18.9392 11.9964 18.9797 11.953 18.9942C11.9097 19.0086 11.8649 18.9961 11.826 18.9586C11.7872 18.9212 11.7565 18.8611 11.7391 18.7882C11.7217 18.7152 11.7186 18.6338 11.7303 18.5573L12.4767 14.3444C12.4987 14.2383 12.5061 14.1243 12.4982 14.012C12.4904 13.8997 12.4675 13.7925 12.4315 13.6996C12.3956 13.6067 12.3477 13.5308 12.2919 13.4786C12.2361 13.4264 12.1741 13.3993 12.1113 13.3996H9.39007Z" fill="black" stroke="black" stroke-width="2" stroke-linecap="round" stroke-linejoin="round"/>
</svg>
