<svg xmlns="http://www.w3.org/2000/svg" xmlns:xlink="http://www.w3.org/1999/xlink" viewBox="0 0 32 32"><path d="M31 11v10h-2l-2-6v6h-2V11h2l2 6v-6h2z" fill="currentColor"></path><path d="M21.334 21h-2.667A1.668 1.668 0 0 1 17 19.334v-6.667A1.668 1.668 0 0 1 18.666 11h2.667A1.668 1.668 0 0 1 23 12.666v6.667A1.668 1.668 0 0 1 21.334 21zM19 19h2v-6h-2z" fill="currentColor"></path><path d="M13.334 21H9v-2h4v-2h-2a2.002 2.002 0 0 1-2-2v-2.334A1.668 1.668 0 0 1 10.666 11H15v2h-4v2h2a2.002 2.002 0 0 1 2 2v2.333A1.668 1.668 0 0 1 13.334 21z" fill="currentColor"></path><path d="M5.333 21H2.667A1.668 1.668 0 0 1 1 19.334V17h2v2h2v-8h2v8.334A1.668 1.668 0 0 1 5.333 21z" fill="currentColor"></path></svg>